<svg width="24" height="24" viewBox="0 0 24 24" fill="none" xmlns="http://www.w3.org/2000/svg">
<path d="M12 12.8372C8.46139 12.8372 5.58138 9.95723 5.58138 6.41862C5.58138 2.88001 8.46139 0 12 0C15.5386 0 18.4186 2.88001 18.4186 6.41862C18.4186 9.95723 15.5386 12.8372 12 12.8372ZM12 1.67442C9.3879 1.67442 7.25581 3.80652 7.25581 6.41862C7.25581 9.03072 9.3879 11.1628 12 11.1628C14.6121 11.1628 16.7442 9.03072 16.7442 6.41862C16.7442 3.80652 14.6121 1.67442 12 1.67442ZM21.5889 24C21.1312 24 20.7516 23.6205 20.7516 23.1628C20.7516 19.3117 16.8223 16.1861 12 16.1861C7.17767 16.1861 3.24835 19.3117 3.24835 23.1628C3.24835 23.6205 2.86882 24 2.41114 24C1.95347 24 1.57393 23.6205 1.57393 23.1628C1.57393 18.3963 6.25115 14.5117 12 14.5117C17.7489 14.5117 22.4261 18.3963 22.4261 23.1628C22.4261 23.6205 22.0465 24 21.5889 24Z" fill="#DE2976"/>
</svg>
