<svg width="120" height="101" viewBox="0 0 120 101" fill="none" xmlns="http://www.w3.org/2000/svg">
<g opacity="0.6">
<path d="M1.0166 73.5492C14.7117 80.5785 20.4078 86.2747 27.4371 99.9697C34.4665 86.2747 40.1626 80.5785 53.8577 73.5492C40.1626 66.5199 34.4665 60.8237 27.4371 47.1286C20.4078 60.8237 14.7117 66.5199 1.0166 73.5492Z" fill="#F0BA46"/>
<path d="M0.531798 74.3975C6.10678 77.3062 11.5606 80.4573 16.0448 84.9415C20.529 89.4257 23.6801 94.8795 26.5888 100.454C26.9523 101.06 28.0431 101.06 28.2855 100.454C31.1942 94.8795 34.3453 89.4257 38.8295 84.9415C43.3137 80.4573 48.7675 77.3062 54.3425 74.3975C54.9484 74.0339 54.9484 72.9432 54.3425 72.7008C48.7675 69.7921 43.3137 66.641 38.8295 62.1568C34.3453 57.6726 31.1942 52.2188 28.2855 46.6438C27.9219 46.0379 26.8312 46.0379 26.5888 46.6438C23.6801 52.2188 20.529 57.6726 16.0448 62.1568C11.5606 66.641 6.10678 69.7921 0.531798 72.7008C-0.680154 73.3068 0.410603 75.0035 1.50136 74.3975C6.10678 71.9736 10.591 69.4285 14.5904 66.1563C18.1051 63.2476 21.135 59.7329 23.5589 55.8547C25.2556 53.1884 26.8312 50.4009 28.2855 47.6134H26.5888C29.0127 52.2188 31.5578 56.703 34.83 60.7025C37.7387 64.2171 41.2534 67.247 45.1316 69.6709C47.7979 71.3677 50.5854 72.9432 53.3729 74.3975V72.7008C48.7675 75.1247 44.2833 77.6698 40.2838 80.9421C36.7692 83.8508 33.7393 87.3654 31.3154 91.2437C29.6186 93.91 28.0431 96.6975 26.5888 99.4849H28.2855C25.8616 94.8795 23.3165 90.3953 20.0442 86.3959C17.1355 82.8812 13.6209 79.8513 9.74263 77.4274C7.07634 75.7307 4.28885 74.1551 1.50136 72.7008C0.410603 72.0948 -0.558959 73.7916 0.531798 74.3975Z" fill="#2F2F2F"/>
<path d="M48.8887 20.4657C57.1299 24.7075 60.5234 28.101 64.7652 36.3423C69.0071 28.101 72.4005 24.7075 80.6418 20.4657C72.4005 16.2239 69.0071 12.8304 64.7652 4.58914C60.4022 12.8304 57.0087 16.3451 48.8887 20.4657Z" fill="#E75D30"/>
<path d="M48.2827 21.3141C51.555 23.0108 54.8273 24.9499 57.4935 27.6162C60.1598 30.2825 62.099 33.5548 63.7957 36.827C64.1593 37.433 65.25 37.433 65.4924 36.827C67.1892 33.5548 69.1283 30.2825 71.7946 27.6162C74.4609 24.9499 77.7331 23.0108 81.0054 21.3141C81.6114 20.9505 81.6114 19.8597 81.0054 19.6173C77.7331 17.9206 74.4609 15.9815 71.7946 13.3152C69.1283 10.6489 67.1892 7.37662 65.4924 4.10435C65.1288 3.49838 64.0381 3.49838 63.7957 4.10435C62.099 7.37662 60.1598 10.6489 57.4935 13.3152C54.8273 15.9815 51.555 17.9206 48.2827 19.6173C47.0708 20.2233 48.1615 21.92 49.2523 21.3141C52.7669 19.4961 56.1604 17.557 58.8267 14.7695C61.6142 11.982 63.6745 8.58857 65.3712 5.19511H63.6745C65.4924 8.70977 67.4316 12.1032 70.219 14.7695C73.0065 17.557 76.4 19.6173 79.7935 21.3141V19.6173C76.2788 21.4353 72.8853 23.3744 70.219 26.1619C67.4316 28.9494 65.3712 32.3428 63.6745 35.7363H65.3712C63.5533 32.2216 61.6142 28.8282 58.8267 26.1619C56.0392 23.3744 52.6457 21.3141 49.2523 19.6173C48.1615 19.0114 47.192 20.8293 48.2827 21.3141Z" fill="#2F2F2F"/>
<path d="M100.881 10.4065C105.608 12.8304 107.547 14.7695 109.971 19.4961C112.395 14.7695 114.334 12.8304 119.061 10.4065C114.334 7.9826 112.395 6.04348 109.971 1.31686C107.547 6.04348 105.608 7.9826 100.881 10.4065Z" fill="#EEA7AF"/>
<path d="M100.397 11.2549C102.215 12.2244 104.154 13.3152 105.608 14.7695C107.062 16.2239 108.153 18.0418 109.123 19.9809C109.486 20.5869 110.577 20.5869 110.819 19.9809C111.789 18.163 112.88 16.2239 114.334 14.7695C115.788 13.3152 117.606 12.2244 119.545 11.2549C120.151 10.8913 120.151 9.80052 119.545 9.55813C117.728 8.58857 115.788 7.49781 114.334 6.04347C112.88 4.58913 111.789 2.7712 110.819 0.832076C110.456 0.2261 109.365 0.2261 109.123 0.832076C108.153 2.65 107.062 4.58913 105.608 6.04347C104.154 7.49781 102.336 8.58857 100.397 9.55813C99.1847 10.1641 100.275 11.8608 101.366 11.2549C103.427 10.1641 105.366 9.07335 106.941 7.37662C108.517 5.80108 109.729 3.74076 110.819 1.80164H109.123C110.213 3.86196 111.304 5.80108 113.001 7.37662C114.576 8.95215 116.637 10.1641 118.576 11.2549V9.55813C116.516 10.6489 114.576 11.7396 113.001 13.4364C111.425 15.0119 110.213 17.0722 109.123 19.0114H110.819C109.729 16.951 108.638 15.0119 106.941 13.4364C105.366 11.8608 103.305 10.6489 101.366 9.55813C100.275 8.95215 99.1847 10.6489 100.397 11.2549Z" fill="#2F2F2F"/>
<path d="M62.4626 55.0063C68.6435 58.1574 71.3098 60.8237 74.4609 67.0046C77.612 60.8237 80.2783 58.1574 86.4592 55.0063C80.2783 51.8552 77.612 49.1889 74.4609 43.008C71.3098 49.3101 68.7647 51.8552 62.4626 55.0063Z" fill="#5AAD65"/>
<path d="M61.9778 55.9759C64.5229 57.309 66.9468 58.6422 68.8859 60.7025C70.825 62.6416 72.2794 65.1867 73.6125 67.6106C73.9761 68.2166 75.0669 68.2166 75.3093 67.6106C76.6424 65.0655 77.9755 62.6416 80.0359 60.7025C81.975 58.7634 84.5201 57.309 86.944 55.9759C87.55 55.6123 87.55 54.5215 86.944 54.2792C84.3989 52.946 81.975 51.6129 80.0359 49.5525C78.0967 47.6134 76.6424 45.0683 75.3093 42.6444C74.9457 42.0384 73.8549 42.0384 73.6125 42.6444C72.2794 45.1895 70.9462 47.6134 68.8859 49.5525C66.9468 51.4917 64.4017 52.946 61.9778 54.2792C60.7658 54.8851 61.8566 56.5819 62.9473 55.9759C65.6136 54.6427 68.1587 53.0672 70.3403 51.0069C72.4006 48.9466 73.9761 46.2803 75.3093 43.614H73.6125C74.9457 46.2803 76.5212 48.8254 78.5815 51.0069C80.6418 53.0672 83.3081 54.6427 85.9744 55.9759V54.2792C83.3081 55.6123 80.763 57.1878 78.5815 59.2482C76.5212 61.3085 74.9457 63.9748 73.6125 66.6411H75.3093C73.9761 63.9748 72.4006 61.4297 70.3403 59.2482C68.2799 57.1878 65.6136 55.6123 62.9473 54.2792C61.8566 53.552 60.887 55.3699 61.9778 55.9759Z" fill="#2F2F2F"/>
</g>
</svg>
