<svg width="109" height="120" viewBox="0 0 109 120" fill="none" xmlns="http://www.w3.org/2000/svg">
<g style="mix-blend-mode:plus-lighter" clip-path="url(#clip0_7_99)">
<path d="M47.9813 57.7032C47.9813 57.7032 65.2219 113.396 69.675 117.563C74.1281 121.725 94.9594 122.586 91.5112 101.773L85.4775 101.916C85.4775 101.916 85.0463 114.69 76.14 111.677C69.3881 109.38 53.2969 56.1263 53.2969 56.1263L47.9813 57.7032ZM33.7594 17.7994C33.7594 17.7994 23.4188 3.15753 31.0313 0.286907C39.795 -2.87059 39.3638 15.0713 39.3638 15.0713L33.7613 17.7994H33.7594Z" fill="#fff"/>
<path d="M105.015 40.9087C105.015 40.9087 107.888 39.6169 107.171 36.8906C106.449 34.0181 78.7238 8.03811 36.9188 13.35C36.9188 13.35 22.1213 18.66 9.62251 39.0431C-2.72999 59.4244 -1.58062 89.2819 4.31251 89.7131C10.6313 90.1444 7.47188 75.9319 17.2406 73.2056C27.0094 70.4794 33.0431 81.9619 38.3588 80.3831C44.3925 78.5175 37.9275 63.8756 49.4213 59.2819C60.915 54.6881 66.2288 68.1825 73.2675 65.7412C79.5881 63.5887 74.5612 52.68 83.8988 47.0812C93.2363 41.4825 105.593 48.66 108.034 44.355C110.619 40.0481 105.015 40.9087 105.015 40.9087ZM78.0075 43.6369C72.405 48.0862 72.2606 58.8525 70.2488 59.8556C68.2388 60.8606 58.755 51.0994 46.8319 55.4062C34.9088 59.7131 36.2006 73.2056 34.7663 73.9237C33.3281 74.6419 25.2844 65.3119 16.665 67.4644C8.19001 69.7612 4.59751 77.655 4.59751 77.655C4.59751 77.655 1.86751 67.1775 11.6363 45.2156C21.405 23.2537 38.07 18.3731 38.07 18.3731C82.1738 14.4975 101.998 41.4825 101.998 41.4825C101.998 41.4825 83.61 39.33 78.0075 43.6369Z" fill="#fff"/>
<path d="M34.335 21.3881C36.2025 19.9519 24.8531 39.6169 33.4725 69.1875C33.4725 69.1875 29.0194 59.8575 18.9637 63.5888C8.90625 67.32 17.5256 35.3119 34.335 21.3881ZM40.9425 21.3881C40.2244 25.2638 55.3087 29.4263 67.2319 54.8325C67.2319 54.8325 68.9569 42.7763 80.5931 38.1825C89.4994 34.7363 41.6606 17.5125 40.9425 21.3881Z" fill="#fff"/>
<path d="M24.9975 33.8756C24.9975 33.8756 25.2844 34.8806 25.7156 34.7381C26.1469 34.5938 26.5781 33.8756 26.1469 33.4444C25.7156 33.1575 24.9975 33.8756 24.9975 33.8756ZM21.2625 39.33C21.2625 39.33 21.5494 40.335 21.9806 40.1925C22.4119 40.0481 22.8431 39.33 22.4119 38.8988C21.9806 38.4675 21.2606 39.33 21.2606 39.33H21.2625ZM17.5256 44.6419C17.5256 44.6419 17.8144 45.645 18.2437 45.5025C18.675 45.3581 19.1062 44.64 18.675 44.2106C18.2437 43.7794 17.5256 44.6419 17.5256 44.6419ZM15.0844 50.5256C15.0844 50.5256 15.3712 51.5306 15.8025 51.3881C16.2337 51.2438 16.665 50.5256 16.2337 50.0944C15.8025 49.665 15.0844 50.5256 15.0844 50.5256ZM12.93 56.5556C12.93 56.5556 13.2169 57.5606 13.6481 57.4163C14.0794 57.2719 14.5106 56.5538 14.0794 56.1244C13.6481 55.8375 12.93 56.5556 12.93 56.5556ZM10.7737 62.7281C10.7737 62.7281 11.0625 63.7313 11.4919 63.5888C11.9231 63.4444 12.3544 62.7263 11.9231 62.295C11.4919 62.01 10.7737 62.7263 10.7737 62.7263V62.7281ZM27.2944 32.7263C27.2944 32.7263 27.5831 33.7313 28.0144 33.5888C28.4456 33.4444 28.8769 32.7263 28.4456 32.295C28.0144 32.01 27.2944 32.7263 27.2944 32.7263ZM23.5594 38.0381C23.5594 38.0381 23.8481 39.0431 24.2775 38.9006C24.7087 38.7563 25.14 38.0381 24.7087 37.6069C24.2775 37.1756 23.5594 38.0381 23.5594 38.0381ZM19.6819 43.2056C19.6819 43.2056 19.9687 44.2106 20.4 44.0681C20.8312 43.9238 21.2625 43.2056 20.8312 42.7744C20.5425 42.4875 19.6819 43.2056 19.6819 43.2056ZM16.95 49.0913C16.95 49.0913 17.2387 50.0963 17.67 49.9538C18.1012 49.8094 18.5325 49.0913 18.1012 48.66C17.67 48.3731 16.9519 49.0913 16.9519 49.0913H16.95ZM14.2219 54.975C14.2219 54.975 14.5087 55.9819 14.94 55.8375C15.3712 55.6931 15.8025 54.975 15.3712 54.5438C14.94 54.1144 14.2219 54.975 14.2219 54.975Z" fill="#fff"/>
<path d="M25.5712 34.4494C25.5712 34.4494 25.8581 35.4544 26.2894 35.3119C26.7206 35.1675 27.1519 34.4494 26.7206 34.0181C26.2894 33.5869 25.5712 34.4494 25.5712 34.4494ZM21.405 39.4744C21.405 39.4744 21.6919 40.4775 22.1231 40.335C22.5544 40.1906 22.9856 39.4725 22.5544 39.0431C22.1231 38.6119 21.405 39.4744 21.405 39.4744ZM18.2437 45.0712C18.2437 45.0712 18.5325 46.0762 18.9637 45.9337C19.395 45.7894 19.8262 45.0712 19.395 44.64C18.9637 44.2106 18.2437 45.0712 18.2437 45.0712ZM15.5156 50.8125C15.5156 50.8125 15.8025 51.8175 16.2337 51.675C16.665 51.5306 17.0962 50.8125 16.665 50.3812C16.2337 50.0962 15.5156 50.8125 15.5156 50.8125ZM12.4987 54.4012C12.4987 54.4012 12.7856 55.4062 13.2169 55.2637C13.6481 55.1194 14.0794 54.4012 13.6481 53.97C13.3594 53.685 12.4987 54.4012 12.4987 54.4012ZM14.5087 48.2306C14.5087 48.2306 14.7975 49.2337 15.2269 49.0912C15.6581 48.9469 16.0894 48.2287 15.6581 47.7975C15.2269 47.5125 14.5087 48.2306 14.5087 48.2306ZM17.67 42.6319C17.67 42.6319 17.9569 43.6369 18.3881 43.4944C18.8194 43.35 19.2506 42.6319 18.8194 42.2006C18.3881 41.7694 17.67 42.6319 17.67 42.6319ZM20.8312 37.0331C20.8312 37.0331 21.1181 38.0381 21.5494 37.8956C21.9806 37.7512 22.4119 37.0331 21.9806 36.6019C21.6919 36.1706 20.8312 37.0331 20.8312 37.0331ZM10.9181 58.1344C10.9181 58.1344 11.205 59.1394 11.6362 58.9969C12.0675 58.8506 12.4987 58.1344 12.0675 57.7031C11.6362 57.4162 10.9181 58.1344 10.9181 58.1344ZM77.145 35.1675C77.145 35.1675 77.4319 36.1725 77.8631 36.03C78.2944 35.8856 78.7256 35.1675 78.2944 34.7362C77.8631 34.305 77.145 35.1675 77.145 35.1675ZM72.1162 31.005C72.1162 31.005 72.405 32.01 72.8344 31.8675C73.2656 31.7231 73.6969 31.005 73.2656 30.5737C72.8344 30.2869 72.1162 31.005 72.1162 31.005ZM66.0825 28.5637C66.0825 28.5637 66.3712 29.5687 66.8006 29.4262C67.2319 29.2819 67.6631 28.5637 67.2319 28.1325C66.8006 27.8475 66.0825 28.5637 66.0825 28.5637ZM59.9062 27.1294C59.9062 27.1294 60.1931 28.1344 60.6244 27.9919C61.0556 27.8475 61.4869 27.1294 61.0556 26.6981C60.6244 26.4112 59.9062 27.1294 59.9062 27.1294ZM53.4412 26.1244C53.4412 26.1244 53.7281 27.1294 54.1594 26.9869C54.5906 26.8425 55.0219 26.1244 54.5906 25.6931C54.1594 25.4062 53.4412 26.1244 53.4412 26.1244ZM46.9762 25.2637C46.9762 25.2637 47.2631 26.2669 47.6944 26.1244C48.1256 25.98 48.5569 25.2619 48.1256 24.8325C47.8387 24.4012 46.9762 25.2637 46.9762 25.2637ZM80.7375 34.8806C80.7375 34.8806 81.0244 35.8856 81.4556 35.7431C81.8869 35.5987 82.3181 34.8806 81.8869 34.4494C81.4556 34.1625 80.7375 34.8806 80.7375 34.8806ZM74.9906 31.7231C74.9906 31.7231 75.2775 32.7281 75.7087 32.5837C76.14 32.4394 76.5713 31.7212 76.14 31.2919C75.8531 30.8606 74.9906 31.7231 74.9906 31.7231ZM69.3881 28.4212C69.3881 28.4212 69.675 29.4262 70.1062 29.2837C70.5375 29.1394 70.9687 28.4212 70.5375 27.99C70.2487 27.7031 69.3881 28.4212 69.3881 28.4212ZM63.3544 26.2687C63.3544 26.2687 63.6412 27.2737 64.0725 27.1294C64.5037 26.985 64.935 26.2669 64.5037 25.8356C64.215 25.5506 63.3544 26.2669 63.3544 26.2669V26.2687ZM57.0337 24.8325C57.0337 24.8325 57.3206 25.8375 57.7519 25.695C58.1831 25.5506 58.6144 24.8325 58.1831 24.4012C57.8944 24.1144 57.0337 24.8325 57.0337 24.8325ZM50.7112 23.3981C50.7112 23.3981 51 24.4012 51.4294 24.2587C51.8606 24.1144 52.2919 23.3962 51.8606 22.965C51.5737 22.68 50.7112 23.3962 50.7112 23.3962V23.3981ZM83.0344 34.8806C83.0344 34.8806 83.3231 35.8856 83.7525 35.7431C84.1837 35.5987 84.615 34.8806 84.1837 34.4494C83.7525 34.0181 83.0344 34.8806 83.0344 34.8806ZM77.8631 31.005C77.8631 31.005 78.15 32.01 78.5812 31.8675C79.0125 31.7231 79.4437 31.005 79.0125 30.5737C78.5812 30.2869 77.8631 31.005 77.8631 31.005ZM72.4031 27.7031C72.4031 27.7031 72.6919 28.7081 73.1231 28.5656C73.5544 28.4212 73.9856 27.7031 73.5544 27.2719C73.1231 26.8406 72.4031 27.7031 72.4031 27.7031ZM66.225 25.6931C66.225 25.6931 66.5137 26.6981 66.945 26.5556C67.3762 26.4112 67.8075 25.6931 67.3762 25.2619C66.945 24.9769 66.225 25.6931 66.225 25.6931ZM60.0487 23.8275C60.0487 23.8275 60.3375 24.8325 60.7669 24.69C61.1981 24.5456 61.6294 23.8275 61.1981 23.3962C60.7669 22.965 60.0487 23.8275 60.0487 23.8275ZM73.5525 34.5937C73.5525 34.5937 73.8412 35.5987 74.2725 35.4562C74.7037 35.31 75.135 34.5937 74.7037 34.1625C74.2725 33.7312 73.5525 34.5937 73.5525 34.5937ZM67.6631 31.7231C67.6631 31.7231 67.95 32.7262 68.3812 32.5837C68.8125 32.4394 69.2437 31.7212 68.8125 31.2919C68.5256 31.005 67.6631 31.7231 67.6631 31.7231ZM61.7737 29.1375C61.7737 29.1375 62.0606 30.1444 62.4919 30C62.9231 29.8575 63.3544 29.1375 62.9231 28.7081C62.6362 28.2769 61.7737 29.1394 61.7737 29.1394V29.1375ZM55.5956 27.2719C55.5956 27.2719 55.8844 28.2769 56.3137 28.1344C56.745 27.99 57.1762 27.2719 56.745 26.8406C56.3137 26.5556 55.5956 27.2719 55.5956 27.2719ZM49.4194 25.5506C49.4194 25.5506 49.7062 26.5556 50.1375 26.4131C50.5687 26.2687 51 25.5506 50.5687 25.1194C50.1375 24.8325 49.4194 25.5506 49.4194 25.5506ZM69.8175 32.4394C69.8175 32.4394 70.1062 33.4444 70.5375 33.3019C70.9687 33.1575 71.4 32.4394 70.9687 32.0081C70.5375 31.5787 69.8175 32.4394 69.8175 32.4394ZM64.6462 28.5637C64.6462 28.5637 64.9331 29.5687 65.3644 29.4262C65.7956 29.2819 66.2269 28.5637 65.7956 28.1325C65.3644 27.8475 64.6462 28.5637 64.6462 28.5637ZM70.8244 33.4444C70.8244 33.4444 71.1112 34.4494 71.5425 34.3069C71.9737 34.1625 72.405 33.4444 71.9737 33.0131C71.5425 32.5837 70.8244 33.4444 70.8244 33.4444ZM65.0775 30.1425C65.0775 30.1425 65.3644 31.1475 65.7956 31.005C66.2269 30.8606 66.6581 30.1425 66.2269 29.7112C65.94 29.4262 65.0775 30.1425 65.0775 30.1425Z" fill="#fff"/>
<path d="M74.5594 33.3C74.5594 33.3 74.8462 34.3069 75.2775 34.1625C75.7087 34.02 76.14 33.3 75.7087 32.8706C75.2775 32.4394 74.5594 33.3 74.5594 33.3ZM56.8875 50.0963C56.8875 50.0963 57.1762 51.1013 57.6075 50.9588C58.0387 50.8125 58.47 50.0963 58.0387 49.665C57.6075 49.3781 56.8875 50.0963 56.8875 50.0963ZM50.4244 50.9569C50.4244 50.9569 50.7112 51.9619 51.1425 51.8194C51.5737 51.675 52.005 50.9569 51.5737 50.5256C51.1425 50.0944 50.4244 50.9569 50.4244 50.9569ZM44.3906 52.68C44.3906 52.68 44.6775 53.685 45.1087 53.5406C45.54 53.3981 45.9712 52.6781 45.54 52.2488C45.1087 51.9619 44.3906 52.68 44.3906 52.68ZM39.075 56.2688C39.075 56.2688 39.3619 57.2719 39.7931 57.1294C40.2244 56.985 40.6556 56.2669 40.2244 55.8356C39.7931 55.5506 39.075 56.2688 39.075 56.2688ZM35.1956 61.1475C35.1956 61.1475 35.4844 62.1525 35.9156 62.01C36.3469 61.8656 36.7781 61.1475 36.3469 60.7163C35.9156 60.4313 35.1956 61.1475 35.1956 61.1475Z" fill="#fff"/>
<path d="M56.4581 49.3781C56.4581 49.3781 56.745 50.3831 57.1762 50.2406C57.6075 50.0963 58.0387 49.3781 57.6075 48.9469C57.1762 48.5156 56.4581 49.3781 56.4581 49.3781ZM50.4244 48.5175C50.4244 48.5175 50.7112 49.5206 51.1425 49.3781C51.5737 49.2338 52.005 48.5156 51.5737 48.0863C51.2869 47.7994 50.4244 48.5175 50.4244 48.5175ZM44.2462 50.5256C44.2462 50.5256 44.535 51.5306 44.9662 51.3881C45.3975 51.2438 45.8287 50.5256 45.3975 50.0944C45.1087 49.8094 44.2462 50.5256 44.2462 50.5256ZM38.3569 52.9669C38.3569 52.9669 38.6437 53.9719 39.075 53.8294C39.5062 53.685 39.9375 52.9669 39.5062 52.5356C39.075 52.2488 38.3569 52.9669 38.3569 52.9669ZM33.7594 57.4163C33.7594 57.4163 34.0481 58.4213 34.4775 58.2788C34.9087 58.1344 35.34 57.4163 34.9087 56.985C34.4775 56.6981 33.7594 57.4163 33.7594 57.4163ZM40.3687 54.4013C40.3687 54.4013 40.6556 55.4063 41.0869 55.2638C41.5181 55.1194 41.9494 54.4013 41.5181 53.97C41.0869 53.685 40.3687 54.4013 40.3687 54.4013ZM36.7762 56.985C36.7762 56.985 37.0631 57.99 37.4944 57.8475C37.9256 57.7031 38.3569 56.985 37.9256 56.5538C37.6387 56.2688 36.7762 56.985 36.7762 56.985ZM46.9762 50.9569C46.9762 50.9569 47.2631 51.9619 47.6944 51.8194C48.1256 51.675 48.5569 50.9569 48.1256 50.5256C47.6944 50.2388 46.9762 50.9569 46.9762 50.9569ZM41.3737 51.2438C41.3737 51.2438 41.6606 52.2488 42.0919 52.1063C42.5231 51.9619 42.9544 51.2438 42.5231 50.8125C42.2362 50.3813 41.3737 51.2438 41.3737 51.2438ZM53.01 48.2306C53.01 48.2306 53.2969 49.2338 53.7281 49.0913C54.1594 48.9469 54.5906 48.2288 54.1594 47.7975C53.8725 47.5125 53.01 48.2306 53.01 48.2306ZM59.1881 50.8125C59.1881 50.8125 59.475 51.8175 59.9062 51.675C60.3375 51.5306 60.7687 50.8125 60.3375 50.3813C59.9062 50.0963 59.1881 50.8125 59.1881 50.8125ZM54.735 50.67C54.735 50.67 55.0219 51.675 55.4531 51.5325C55.8844 51.3881 56.3156 50.67 55.8844 50.2388C55.4531 49.9519 54.735 50.67 54.735 50.67ZM62.205 52.3931C62.205 52.3931 62.4919 53.3963 62.9231 53.2538C63.3544 53.1094 63.7856 52.3913 63.3544 51.96C62.9231 51.5306 62.205 52.3913 62.205 52.3913V52.3931ZM58.0387 46.9388C58.0387 46.9388 58.3256 47.9419 58.7569 47.7994C59.1881 47.655 59.6194 46.9369 59.1881 46.5056C58.7569 46.0763 58.0387 46.9388 58.0387 46.9388ZM51.5737 47.2256C51.5737 47.2256 51.8606 48.2288 52.2919 48.0863C52.7231 47.9419 53.1544 47.2238 52.7231 46.7925C52.2919 46.3631 51.5737 47.2256 51.5737 47.2256ZM45.3956 48.9469C45.3956 48.9469 45.6844 49.9519 46.1137 49.8094C46.545 49.665 46.9762 48.9469 46.545 48.5156C46.1137 48.2306 45.3956 48.9469 45.3956 48.9469ZM39.2194 51.2438C39.2194 51.2438 39.5062 52.2488 39.9375 52.1063C40.3687 51.9619 40.8 51.2438 40.3687 50.8125C40.08 50.3813 39.2194 51.2438 39.2194 51.2438ZM34.9087 55.8375C34.9087 55.8375 35.1956 56.8425 35.6269 56.7C36.0581 56.5556 36.4894 55.8375 36.0581 55.4063C35.6269 55.1194 34.9087 55.8375 34.9087 55.8375ZM47.9812 46.2188C47.9812 46.2188 48.27 47.2256 48.7012 47.0813C49.1325 46.9388 49.5637 46.2188 49.1325 45.7894C48.8437 45.3581 47.9812 46.2188 47.9812 46.2188ZM41.805 47.7994C41.805 47.7994 42.0919 48.8044 42.5231 48.6619C42.9544 48.5175 43.3856 47.7994 42.9544 47.3681C42.5231 47.0813 41.805 47.7994 41.805 47.7994ZM42.0937 44.3531C42.0937 44.3531 42.3787 45.3581 42.81 45.2156C43.2412 45.0713 43.6725 44.3531 43.2412 43.9219C42.81 43.4925 42.0919 44.3531 42.0919 44.3531H42.0937Z" fill="#fff"/>
</g>
<defs>
<clipPath id="clip0_7_99">
<rect width="108.75" height="120" fill="white"/>
</clipPath>
</defs>
</svg>
