<svg width="24" height="24" viewBox="0 0 24 24" fill="none" xmlns="http://www.w3.org/2000/svg">
<path d="M23.5782 20.8088L21.9532 8.74173C21.8618 8.063 21.5298 7.44289 21.0182 6.9956C20.5067 6.54832 19.8478 6.30199 19.163 6.30199H17.375V5.375C17.375 2.4112 14.9638 0 12 0C9.03621 0 6.62495 2.4112 6.62495 5.375V6.30199H4.837C4.15216 6.30199 3.49325 6.54832 2.98174 6.9956C2.47022 7.44284 2.13815 8.063 2.04673 8.74173L0.421851 20.8088C0.310266 21.6376 0.542249 22.4084 1.09266 23.0378C1.64306 23.6672 2.37596 24 3.21213 24H20.7879C21.624 24 22.3569 23.6673 22.9075 23.0377C23.4578 22.4082 23.6897 21.6375 23.5782 20.8088ZM8.21832 5.375C8.21832 3.28979 9.9148 1.59336 12 1.59336C14.0852 1.59336 15.7817 3.28979 15.7817 5.375V6.30199H8.21832V5.375ZM21.708 21.9889C21.4622 22.27 21.1612 22.4066 20.7879 22.4066H3.21213C2.83883 22.4066 2.53788 22.27 2.29206 21.9889C2.04633 21.7079 1.95113 21.3915 2.00092 21.0215L3.62585 8.95434C3.70846 8.3407 4.21783 7.89535 4.837 7.89535H6.62495V10.6508C6.62495 11.0908 6.98167 11.4475 7.42164 11.4475C7.8616 11.4475 8.21832 11.0908 8.21832 10.6508V7.89535H15.7817V10.6508C15.7817 11.0908 16.1384 11.4475 16.5783 11.4475C17.0183 11.4475 17.375 11.0908 17.375 10.6508V7.89535H19.163C19.7821 7.89535 20.2915 8.3407 20.3741 8.95434L21.999 21.0214C22.0489 21.3914 21.9536 21.708 21.708 21.9889Z" fill="#DE2976"/>
</svg>
