<svg width="109" height="120" viewBox="0 0 109 120" fill="none" xmlns="http://www.w3.org/2000/svg">
<g clip-path="url(#clip0_23_460)">
<path d="M47.9813 57.703C47.9813 57.703 65.2219 113.396 69.675 117.562C74.1281 121.725 94.9594 122.586 91.5113 101.773L85.4775 101.916C85.4775 101.916 85.0463 114.69 76.14 111.677C69.3881 109.38 53.2969 56.1262 53.2969 56.1262L47.9813 57.703ZM33.7594 17.7993C33.7594 17.7993 23.4188 3.15741 31.0313 0.286785C39.795 -2.87072 39.3638 15.0712 39.3638 15.0712L33.7613 17.7993H33.7594Z" fill="#B0C9EB"/>
<path d="M105.015 40.9089C105.015 40.9089 107.887 39.617 107.171 36.8907C106.449 34.0182 78.7237 8.03824 36.9187 13.3501C36.9187 13.3501 22.1212 18.6601 9.62248 39.0432C-2.73002 59.4245 -1.58065 89.282 4.31248 89.7132C10.6312 90.1445 7.47185 75.932 17.2406 73.2057C27.0094 70.4795 33.0431 81.962 38.3587 80.3832C44.3925 78.5176 37.9275 63.8757 49.4212 59.282C60.915 54.6882 66.2287 68.1826 73.2675 65.7414C79.5881 63.5889 74.5612 52.6801 83.8987 47.0814C93.2362 41.4826 105.592 48.6601 108.034 44.3551C110.619 40.0482 105.015 40.9089 105.015 40.9089ZM78.0075 43.637C72.405 48.0864 72.2606 58.8526 70.2487 59.8557C68.2387 60.8607 58.755 51.0995 46.8319 55.4064C34.9087 59.7132 36.2006 73.2057 34.7662 73.9239C33.3281 74.642 25.2844 65.312 16.665 67.4645C8.18998 69.7614 4.59748 77.6551 4.59748 77.6551C4.59748 77.6551 1.86748 67.1776 11.6362 45.2157C21.405 23.2539 38.07 18.3732 38.07 18.3732C82.1737 14.4976 101.998 41.4826 101.998 41.4826C101.998 41.4826 83.61 39.3301 78.0075 43.637Z" fill="#F0B5BE"/>
<path d="M34.335 21.3881C36.2025 19.9518 24.8532 39.6168 33.4725 69.1874C33.4725 69.1874 29.0194 59.8574 18.9638 63.5887C8.90628 67.3199 17.5257 35.3118 34.335 21.3881ZM40.9425 21.3881C40.2244 25.2637 55.3088 29.4262 67.2319 54.8324C67.2319 54.8324 68.9569 42.7762 80.5932 38.1824C89.4994 34.7362 41.6607 17.5124 40.9425 21.3881Z" fill="#F0B5BE"/>
<path d="M24.9975 33.8757C24.9975 33.8757 25.2844 34.8807 25.7156 34.7382C26.1469 34.5938 26.5781 33.8757 26.1469 33.4444C25.7156 33.1575 24.9975 33.8757 24.9975 33.8757ZM21.2625 39.33C21.2625 39.33 21.5494 40.335 21.9806 40.1925C22.4119 40.0482 22.8431 39.33 22.4119 38.8988C21.9806 38.4675 21.2606 39.33 21.2606 39.33H21.2625ZM17.5256 44.6419C17.5256 44.6419 17.8144 45.645 18.2437 45.5025C18.675 45.3582 19.1062 44.64 18.675 44.2107C18.2437 43.7794 17.5256 44.6419 17.5256 44.6419ZM15.0844 50.5257C15.0844 50.5257 15.3712 51.5307 15.8025 51.3882C16.2337 51.2438 16.665 50.5257 16.2337 50.0944C15.8025 49.665 15.0844 50.5257 15.0844 50.5257ZM12.93 56.5557C12.93 56.5557 13.2169 57.5607 13.6481 57.4163C14.0794 57.2719 14.5106 56.5538 14.0794 56.1244C13.6481 55.8375 12.93 56.5557 12.93 56.5557ZM10.7737 62.7282C10.7737 62.7282 11.0625 63.7313 11.4919 63.5888C11.9231 63.4444 12.3544 62.7263 11.9231 62.295C11.4919 62.01 10.7737 62.7263 10.7737 62.7263V62.7282ZM27.2944 32.7263C27.2944 32.7263 27.5831 33.7313 28.0144 33.5888C28.4456 33.4444 28.8769 32.7263 28.4456 32.295C28.0144 32.01 27.2944 32.7263 27.2944 32.7263ZM23.5594 38.0382C23.5594 38.0382 23.8481 39.0432 24.2775 38.9007C24.7087 38.7563 25.14 38.0382 24.7087 37.6069C24.2775 37.1757 23.5594 38.0382 23.5594 38.0382ZM19.6819 43.2057C19.6819 43.2057 19.9687 44.2107 20.4 44.0682C20.8312 43.9238 21.2625 43.2057 20.8312 42.7744C20.5425 42.4875 19.6819 43.2057 19.6819 43.2057ZM16.95 49.0913C16.95 49.0913 17.2387 50.0963 17.67 49.9538C18.1012 49.8094 18.5325 49.0913 18.1012 48.66C17.67 48.3732 16.9519 49.0913 16.9519 49.0913H16.95ZM14.2219 54.975C14.2219 54.975 14.5087 55.9819 14.94 55.8375C15.3712 55.6932 15.8025 54.975 15.3712 54.5438C14.94 54.1144 14.2219 54.975 14.2219 54.975Z" fill="#F0B5BE"/>
<path d="M25.5713 34.4493C25.5713 34.4493 25.8582 35.4543 26.2894 35.3118C26.7207 35.1675 27.1519 34.4493 26.7207 34.0181C26.2894 33.5868 25.5713 34.4493 25.5713 34.4493ZM21.405 39.4743C21.405 39.4743 21.6919 40.4775 22.1232 40.335C22.5544 40.1906 22.9857 39.4725 22.5544 39.0431C22.1232 38.6118 21.405 39.4743 21.405 39.4743ZM18.2438 45.0712C18.2438 45.0712 18.5325 46.0762 18.9638 45.9337C19.395 45.7893 19.8263 45.0712 19.395 44.64C18.9638 44.2106 18.2438 45.0712 18.2438 45.0712ZM15.5157 50.8125C15.5157 50.8125 15.8025 51.8175 16.2338 51.675C16.665 51.5306 17.0963 50.8125 16.665 50.3812C16.2338 50.0962 15.5157 50.8125 15.5157 50.8125ZM12.4988 54.4012C12.4988 54.4012 12.7857 55.4062 13.2169 55.2637C13.6482 55.1193 14.0794 54.4012 13.6482 53.97C13.3594 53.685 12.4988 54.4012 12.4988 54.4012ZM14.5088 48.2306C14.5088 48.2306 14.7975 49.2337 15.2269 49.0912C15.6582 48.9468 16.0894 48.2287 15.6582 47.7975C15.2269 47.5125 14.5088 48.2306 14.5088 48.2306ZM17.67 42.6318C17.67 42.6318 17.9569 43.6368 18.3882 43.4943C18.8194 43.35 19.2507 42.6318 18.8194 42.2006C18.3882 41.7693 17.67 42.6318 17.67 42.6318ZM20.8313 37.0331C20.8313 37.0331 21.1182 38.0381 21.5494 37.8956C21.9807 37.7512 22.4119 37.0331 21.9807 36.6018C21.6919 36.1706 20.8313 37.0331 20.8313 37.0331ZM10.9182 58.1343C10.9182 58.1343 11.205 59.1393 11.6363 58.9968C12.0675 58.8506 12.4988 58.1343 12.0675 57.7031C11.6363 57.4162 10.9182 58.1343 10.9182 58.1343ZM77.145 35.1675C77.145 35.1675 77.4319 36.1725 77.8632 36.03C78.2944 35.8856 78.7256 35.1675 78.2944 34.7362C77.8631 34.305 77.145 35.1675 77.145 35.1675ZM72.1163 31.005C72.1163 31.005 72.405 32.01 72.8344 31.8675C73.2657 31.7231 73.6969 31.005 73.2656 30.5737C72.8344 30.2868 72.1163 31.005 72.1163 31.005ZM66.0825 28.5637C66.0825 28.5637 66.3713 29.5687 66.8006 29.4262C67.2319 29.2818 67.6631 28.5637 67.2319 28.1325C66.8006 27.8475 66.0825 28.5637 66.0825 28.5637ZM59.9063 27.1293C59.9063 27.1293 60.1931 28.1343 60.6244 27.9918C61.0556 27.8475 61.4869 27.1293 61.0556 26.6981C60.6244 26.4112 59.9063 27.1293 59.9063 27.1293ZM53.4413 26.1243C53.4413 26.1243 53.7281 27.1293 54.1594 26.9868C54.5906 26.8425 55.0219 26.1243 54.5906 25.6931C54.1594 25.4062 53.4413 26.1243 53.4413 26.1243ZM46.9763 25.2637C46.9763 25.2637 47.2631 26.2668 47.6944 26.1243C48.1256 25.98 48.5569 25.2618 48.1256 24.8325C47.8388 24.4012 46.9763 25.2637 46.9763 25.2637ZM80.7375 34.8806C80.7375 34.8806 81.0244 35.8856 81.4557 35.7431C81.8869 35.5987 82.3181 34.8806 81.8869 34.4493C81.4556 34.1625 80.7375 34.8806 80.7375 34.8806ZM74.9906 31.7231C74.9906 31.7231 75.2775 32.7281 75.7088 32.5837C76.14 32.4393 76.5713 31.7212 76.14 31.2918C75.8532 30.8606 74.9906 31.7231 74.9906 31.7231ZM69.3881 28.4212C69.3881 28.4212 69.675 29.4262 70.1063 29.2837C70.5375 29.1393 70.9688 28.4212 70.5375 27.99C70.2488 27.7031 69.3881 28.4212 69.3881 28.4212ZM63.3544 26.2687C63.3544 26.2687 63.6413 27.2737 64.0725 27.1293C64.5038 26.985 64.935 26.2668 64.5038 25.8356C64.215 25.5506 63.3544 26.2668 63.3544 26.2668V26.2687ZM57.0338 24.8325C57.0338 24.8325 57.3206 25.8375 57.7519 25.695C58.1832 25.5506 58.6144 24.8325 58.1831 24.4012C57.8944 24.1143 57.0338 24.8325 57.0338 24.8325ZM50.7113 23.3981C50.7113 23.3981 51 24.4012 51.4294 24.2587C51.8606 24.1143 52.2919 23.3962 51.8606 22.965C51.5738 22.68 50.7113 23.3962 50.7113 23.3962V23.3981ZM83.0344 34.8806C83.0344 34.8806 83.3232 35.8856 83.7525 35.7431C84.1838 35.5987 84.615 34.8806 84.1838 34.4493C83.7525 34.0181 83.0344 34.8806 83.0344 34.8806ZM77.8632 31.005C77.8632 31.005 78.15 32.01 78.5813 31.8675C79.0125 31.7231 79.4438 31.005 79.0125 30.5737C78.5813 30.2868 77.8632 31.005 77.8632 31.005ZM72.4031 27.7031C72.4031 27.7031 72.6919 28.7081 73.1232 28.5656C73.5544 28.4212 73.9856 27.7031 73.5544 27.2718C73.1231 26.8406 72.4031 27.7031 72.4031 27.7031ZM66.225 25.6931C66.225 25.6931 66.5138 26.6981 66.945 26.5556C67.3763 26.4112 67.8075 25.6931 67.3763 25.2618C66.945 24.9768 66.225 25.6931 66.225 25.6931ZM60.0488 23.8275C60.0488 23.8275 60.3375 24.8325 60.7669 24.69C61.1982 24.5456 61.6294 23.8275 61.1981 23.3962C60.7669 22.965 60.0488 23.8275 60.0488 23.8275ZM73.5525 34.5937C73.5525 34.5937 73.8413 35.5987 74.2725 35.4562C74.7038 35.31 75.135 34.5937 74.7038 34.1625C74.2725 33.7312 73.5525 34.5937 73.5525 34.5937ZM67.6632 31.7231C67.6632 31.7231 67.95 32.7262 68.3813 32.5837C68.8125 32.4393 69.2438 31.7212 68.8125 31.2918C68.5257 31.005 67.6632 31.7231 67.6632 31.7231ZM61.7738 29.1375C61.7738 29.1375 62.0606 30.1443 62.4919 30C62.9231 29.8575 63.3544 29.1375 62.9231 28.7081C62.6363 28.2768 61.7738 29.1393 61.7738 29.1393V29.1375ZM55.5956 27.2718C55.5956 27.2718 55.8844 28.2768 56.3138 28.1343C56.745 27.99 57.1763 27.2718 56.745 26.8406C56.3138 26.5556 55.5956 27.2718 55.5956 27.2718ZM49.4194 25.5506C49.4194 25.5506 49.7063 26.5556 50.1375 26.4131C50.5688 26.2687 51 25.5506 50.5688 25.1193C50.1375 24.8325 49.4194 25.5506 49.4194 25.5506ZM69.8175 32.4393C69.8175 32.4393 70.1063 33.4443 70.5375 33.3018C70.9688 33.1575 71.4 32.4393 70.9688 32.0081C70.5375 31.5787 69.8175 32.4393 69.8175 32.4393ZM64.6463 28.5637C64.6463 28.5637 64.9331 29.5687 65.3644 29.4262C65.7956 29.2818 66.2269 28.5637 65.7956 28.1325C65.3644 27.8475 64.6463 28.5637 64.6463 28.5637ZM70.8244 33.4443C70.8244 33.4443 71.1113 34.4493 71.5425 34.3068C71.9738 34.1625 72.405 33.4443 71.9738 33.0131C71.5425 32.5837 70.8244 33.4443 70.8244 33.4443ZM65.0775 30.1425C65.0775 30.1425 65.3644 31.1475 65.7956 31.005C66.2269 30.8606 66.6581 30.1425 66.2269 29.7112C65.94 29.4262 65.0775 30.1425 65.0775 30.1425Z" fill="#F0B5BE"/>
<path d="M74.5594 33.2999C74.5594 33.2999 74.8462 34.3068 75.2775 34.1624C75.7087 34.0199 76.14 33.2999 75.7087 32.8705C75.2775 32.4393 74.5594 33.2999 74.5594 33.2999ZM56.8875 50.0961C56.8875 50.0961 57.1762 51.1011 57.6075 50.9586C58.0387 50.8124 58.47 50.0961 58.0387 49.6649C57.6075 49.378 56.8875 50.0961 56.8875 50.0961ZM50.4244 50.9568C50.4244 50.9568 50.7112 51.9618 51.1425 51.8193C51.5737 51.6749 52.005 50.9568 51.5737 50.5255C51.1425 50.0943 50.4244 50.9568 50.4244 50.9568ZM44.3906 52.6799C44.3906 52.6799 44.6775 53.6849 45.1087 53.5405C45.54 53.398 45.9712 52.678 45.54 52.2486C45.1087 51.9618 44.3906 52.6799 44.3906 52.6799ZM39.075 56.2686C39.075 56.2686 39.3619 57.2718 39.7931 57.1293C40.2244 56.9849 40.6556 56.2668 40.2244 55.8355C39.7931 55.5505 39.075 56.2686 39.075 56.2686ZM35.1956 61.1474C35.1956 61.1474 35.4844 62.1524 35.9156 62.0099C36.3469 61.8655 36.7781 61.1474 36.3469 60.7161C35.9156 60.4311 35.1956 61.1474 35.1956 61.1474Z" fill="#F0B5BE"/>
<path d="M56.4582 49.378C56.4582 49.378 56.745 50.383 57.1763 50.2405C57.6075 50.0962 58.0388 49.378 57.6075 48.9468C57.1763 48.5155 56.4582 49.378 56.4582 49.378ZM50.4244 48.5174C50.4244 48.5174 50.7113 49.5205 51.1425 49.378C51.5738 49.2337 52.005 48.5155 51.5738 48.0862C51.2869 47.7993 50.4244 48.5174 50.4244 48.5174ZM44.2463 50.5255C44.2463 50.5255 44.535 51.5305 44.9663 51.388C45.3975 51.2437 45.8288 50.5255 45.3975 50.0943C45.1088 49.8093 44.2463 50.5255 44.2463 50.5255ZM38.3569 52.9668C38.3569 52.9668 38.6438 53.9718 39.075 53.8293C39.5063 53.6849 39.9375 52.9668 39.5063 52.5355C39.075 52.2487 38.3569 52.9668 38.3569 52.9668ZM33.7594 57.4162C33.7594 57.4162 34.0482 58.4212 34.4775 58.2787C34.9088 58.1343 35.34 57.4162 34.9088 56.9849C34.4775 56.698 33.7594 57.4162 33.7594 57.4162ZM40.3688 54.4012C40.3688 54.4012 40.6557 55.4062 41.0869 55.2637C41.5182 55.1193 41.9494 54.4012 41.5182 53.9699C41.0869 53.6849 40.3688 54.4012 40.3688 54.4012ZM36.7763 56.9849C36.7763 56.9849 37.0632 57.9899 37.4944 57.8474C37.9257 57.703 38.3569 56.9849 37.9256 56.5537C37.6388 56.2687 36.7763 56.9849 36.7763 56.9849ZM46.9763 50.9568C46.9763 50.9568 47.2632 51.9618 47.6944 51.8193C48.1257 51.6749 48.5569 50.9568 48.1257 50.5255C47.6944 50.2387 46.9763 50.9568 46.9763 50.9568ZM41.3738 51.2437C41.3738 51.2437 41.6606 52.2487 42.0919 52.1062C42.5231 51.9618 42.9544 51.2437 42.5232 50.8124C42.2363 50.3812 41.3738 51.2437 41.3738 51.2437ZM53.01 48.2305C53.01 48.2305 53.2969 49.2337 53.7282 49.0912C54.1594 48.9468 54.5907 48.2287 54.1594 47.7974C53.8725 47.5124 53.01 48.2305 53.01 48.2305ZM59.1882 50.8124C59.1882 50.8124 59.475 51.8174 59.9063 51.6749C60.3375 51.5305 60.7688 50.8124 60.3375 50.3812C59.9063 50.0962 59.1882 50.8124 59.1882 50.8124ZM54.735 50.6699C54.735 50.6699 55.0219 51.6749 55.4532 51.5324C55.8844 51.388 56.3157 50.6699 55.8844 50.2387C55.4532 49.9518 54.735 50.6699 54.735 50.6699ZM62.205 52.393C62.205 52.393 62.4919 53.3962 62.9231 53.2537C63.3544 53.1093 63.7857 52.3912 63.3544 51.9599C62.9232 51.5305 62.205 52.3912 62.205 52.3912V52.393ZM58.0388 46.9387C58.0388 46.9387 58.3257 47.9418 58.7569 47.7993C59.1882 47.6549 59.6194 46.9368 59.1882 46.5055C58.7569 46.0762 58.0388 46.9387 58.0388 46.9387ZM51.5738 47.2255C51.5738 47.2255 51.8607 48.2287 52.2919 48.0862C52.7232 47.9418 53.1544 47.2237 52.7232 46.7924C52.2919 46.363 51.5738 47.2255 51.5738 47.2255ZM45.3957 48.9468C45.3957 48.9468 45.6844 49.9518 46.1138 49.8093C46.545 49.6649 46.9763 48.9468 46.545 48.5155C46.1138 48.2305 45.3957 48.9468 45.3957 48.9468ZM39.2194 51.2437C39.2194 51.2437 39.5063 52.2487 39.9375 52.1062C40.3688 51.9618 40.8 51.2437 40.3688 50.8124C40.08 50.3812 39.2194 51.2437 39.2194 51.2437ZM34.9088 55.8374C34.9088 55.8374 35.1956 56.8424 35.6269 56.6999C36.0582 56.5555 36.4894 55.8374 36.0582 55.4062C35.6269 55.1193 34.9088 55.8374 34.9088 55.8374ZM47.9813 46.2187C47.9813 46.2187 48.27 47.2255 48.7013 47.0812C49.1325 46.9387 49.5638 46.2187 49.1325 45.7893C48.8438 45.358 47.9813 46.2187 47.9813 46.2187ZM41.805 47.7993C41.805 47.7993 42.0919 48.8043 42.5232 48.6618C42.9544 48.5174 43.3857 47.7993 42.9544 47.368C42.5232 47.0812 41.805 47.7993 41.805 47.7993ZM42.0938 44.353C42.0938 44.353 42.3788 45.358 42.81 45.2155C43.2413 45.0712 43.6725 44.353 43.2413 43.9218C42.81 43.4924 42.0919 44.353 42.0919 44.353H42.0938Z" fill="#F0B5BE"/>
</g>
<defs>
<clipPath id="clip0_23_460">
<rect width="108.75" height="120" fill="white"/>
</clipPath>
</defs>
</svg>
