<svg width="41" height="41" viewBox="0 0 41 41" fill="none" xmlns="http://www.w3.org/2000/svg">
<g clip-path="url(#clip0_23_412)">
<path d="M40.0085 27.657C39.252 26.3781 37.9106 25.9257 36.7408 26.5652L35.7347 27.1111V18.4857C36.5692 18.2206 37.1775 17.4407 37.1775 16.5126V11.9738C37.1775 10.8352 36.2495 9.9071 35.1108 9.9071H29.3944C31.3363 9.08824 32.5217 7.64547 32.5919 5.98433C32.6542 4.59616 31.89 3.34836 30.6656 2.78685C29.8935 2.43591 27.8034 1.90559 25.144 4.45578C23.9196 5.63339 22.9058 7.10735 22.2273 8.6593C21.541 7.10735 20.5272 5.63339 19.3106 4.45578C16.6512 1.89779 14.5611 2.43591 13.7891 2.78685C12.5491 3.34836 11.7926 4.60396 11.8472 5.98433C11.9174 7.64547 13.1028 9.08044 15.0447 9.9071H10.2562C9.11762 9.9071 8.18957 10.8352 8.18957 11.9738V16.5126C8.18957 17.4329 8.79787 18.2206 9.63234 18.4857V25.372L7.88542 26.0739C7.61246 25.6138 7.11334 25.3096 6.53624 25.3096H2.10655C1.24089 25.3018 0.539001 26.0037 0.539001 26.8694V37.4055C0.539001 38.2711 1.24089 38.973 2.10655 38.973H6.54404C7.12894 38.973 7.63586 38.6533 7.90882 38.1776L10.9269 39.1992C11.4416 39.3786 11.9174 39.4566 12.4633 39.4566H25.3702C26.1579 39.4566 26.8364 39.2538 27.5071 38.8249L39.4547 31.1899C40.7025 30.3866 40.6713 28.7723 40.0085 27.657ZM28.0296 31.2991C27.4837 31.5954 26.9768 31.728 26.3918 31.728H26.1735L26.2593 31.6734C27.2107 31.0573 27.6318 29.9187 27.3121 28.8347C26.9923 27.7506 26.0175 27.0176 24.8867 27.0176H22.8434V18.5793H34.4869V27.7896L28.0296 31.2991ZM35.9297 11.9738V16.5126C35.9297 16.965 35.5632 17.3315 35.1108 17.3315H22.8434V11.2251C24.0444 11.498 24.8243 12.5587 25.7134 13.7597C26.2983 14.5474 26.8988 15.3662 27.663 15.9667C27.78 16.0603 27.9126 16.0993 28.053 16.0993C28.2401 16.0993 28.4195 16.0213 28.5443 15.8653C28.7549 15.5924 28.7159 15.2025 28.4429 14.9919C27.8112 14.485 27.2809 13.7753 26.7272 13.0188C26.2593 12.3871 25.7601 11.7086 25.1674 11.1549H35.1186C35.5632 11.1549 35.9297 11.5214 35.9297 11.9738ZM26.0019 5.36044C27.1171 4.29981 28.2401 3.7383 29.215 3.7383C29.5425 3.7383 29.8545 3.80069 30.1508 3.93326C30.9151 4.27641 31.383 5.06408 31.344 5.93754C31.2895 7.19314 30.2366 8.30836 28.5209 8.90886C27.0859 9.41578 25.222 9.74333 23.0852 9.86811C23.6779 8.22257 24.7385 6.58484 26.0019 5.36044ZM13.095 5.93754C13.056 5.06408 13.5239 4.27641 14.2882 3.93326C14.5767 3.80069 14.8887 3.7383 15.224 3.7383C16.1989 3.7383 17.3219 4.29981 18.4293 5.36823C19.7005 6.58484 20.7534 8.22257 21.3539 9.86811C19.217 9.74333 17.3453 9.41578 15.9181 8.90886C14.2024 8.30056 13.1496 7.19314 13.095 5.93754ZM9.43737 11.9738C9.43737 11.5214 9.80391 11.1549 10.2562 11.1549H19.2794C18.6867 11.7086 18.1954 12.3793 17.7196 13.0188C17.1581 13.7753 16.6356 14.4928 16.0039 14.9919C15.731 15.2025 15.692 15.6002 15.9025 15.8653C16.0273 16.0213 16.2067 16.0993 16.3939 16.0993C16.5264 16.0993 16.6668 16.0525 16.7838 15.9667C17.5481 15.3584 18.1486 14.5474 18.7335 13.7597C19.6225 12.5587 20.4024 11.498 21.6034 11.2251V17.3315H10.2562C9.80391 17.3315 9.43737 16.965 9.43737 16.5126V11.9738ZM10.8801 18.5793H21.5956V27.0254H19.061C18.6789 27.0254 18.3591 26.9474 18.0238 26.768L14.3194 24.7949C13.3991 24.3036 12.4087 24.249 11.4416 24.6389L10.8801 24.8651V18.5793ZM6.54404 37.7252H2.10655C1.93498 37.7252 1.7868 37.5771 1.7868 37.4055V26.8694C1.7868 26.6978 1.93498 26.5496 2.10655 26.5496H6.54404C6.71561 26.5496 6.86378 26.6978 6.86378 26.8694V37.3977C6.86378 37.5771 6.71561 37.7252 6.54404 37.7252ZM38.7841 30.137L26.8364 37.7798C26.3685 38.0762 25.9161 38.2165 25.3702 38.2165H12.4711C12.0577 38.2165 11.7224 38.162 11.3325 38.0294L8.11158 36.9376V27.3217L11.9096 25.7931C12.5335 25.5436 13.1418 25.5748 13.7345 25.8945L17.4389 27.8676C17.9536 28.1406 18.4683 28.2731 19.061 28.2731H24.8867C25.4716 28.2731 25.9473 28.6319 26.1111 29.1934C26.2749 29.7549 26.0643 30.3164 25.573 30.6284L24.3486 31.416C24.0132 31.6344 23.6857 31.728 23.2801 31.728H17.7976C17.4545 31.728 17.1737 32.0087 17.1737 32.3519C17.1737 32.695 17.4545 32.9758 17.7976 32.9758H26.384C27.1795 32.9758 27.8892 32.7886 28.6145 32.3987L37.3257 27.657C38.2069 27.1735 38.8153 28.1016 38.9244 28.2887C39.2364 28.7957 39.4469 29.7159 38.7841 30.137Z" fill="#E7ECFB"/>
<path d="M25.3702 39.4955H12.4633C11.9069 39.4955 11.4292 39.4155 10.9141 39.236L7.92636 38.2247C7.63429 38.7112 7.10756 39.0121 6.54403 39.0121H2.10654C1.22068 39.0121 0.5 38.2914 0.5 37.4055V26.8693C0.5 26.4382 0.668297 26.0339 0.973852 25.731C1.27738 25.4302 1.68042 25.264 2.10693 25.2706H6.53623C7.09984 25.2706 7.6077 25.5521 7.90156 26.0254L9.59334 25.3456V18.514C8.74242 18.2304 8.15057 17.4116 8.15057 16.5125V11.9737C8.15057 10.8126 9.09515 9.86801 10.2562 9.86801H14.8591C12.9857 9.01755 11.8769 7.61066 11.8083 5.98587C11.7529 4.58646 12.5241 3.31675 13.773 2.75118C14.5534 2.39649 16.6578 1.8498 19.3376 4.42752C20.5307 5.58244 21.5285 7.01086 22.2271 8.56304C22.9181 7.01101 23.916 5.58267 25.1171 4.42752C27.8027 1.85214 29.9033 2.39743 30.6818 2.75118C31.9284 3.32291 32.6935 4.59262 32.6308 5.98595C32.5619 7.61799 31.4536 9.02473 29.5814 9.86801H35.1108C36.2719 9.86801 37.2165 10.8126 37.2165 11.9737V16.5125C37.2165 17.426 36.638 18.2267 35.7737 18.514V27.0456L36.7222 26.5309C37.9079 25.8824 39.2733 26.3375 40.042 27.6371C40.7132 28.7664 40.7429 30.4069 39.4758 31.2226L27.528 38.8577C26.8477 39.2928 26.162 39.4955 25.3702 39.4955ZM7.89095 38.1303L10.9394 39.1622C11.4462 39.3388 11.916 39.4175 12.4633 39.4175H25.3702C26.1464 39.4175 26.8187 39.2187 27.486 38.7919L39.4337 31.1569C40.6596 30.3677 40.6276 28.7749 39.9748 27.6769L39.9748 27.6768C39.2287 26.4153 37.9064 25.9723 36.7594 26.5994L35.6957 27.1766V18.4572L35.723 18.4486C36.5696 18.1795 37.1385 17.4015 37.1385 16.5126V11.9737C37.1385 10.8557 36.2289 9.94607 35.1108 9.94607H29.2016L29.3792 9.87112C31.3264 9.05007 32.4832 7.63273 32.5528 5.98267C32.6141 4.62116 31.8669 3.38062 30.6493 2.82231C29.8853 2.47503 27.8221 1.94167 25.171 4.48391C23.9567 5.65185 22.9511 7.10117 22.263 8.67495L22.2275 8.75622L22.1917 8.67511C21.4955 7.10093 20.49 5.65161 19.2835 4.48383C16.6381 1.93925 14.5712 2.47433 13.8052 2.82238C12.5853 3.37477 11.832 4.61532 11.8862 5.98283C11.9556 7.62485 13.1124 9.0422 15.0599 9.8712L15.2358 9.94607H10.2562C9.1382 9.94607 8.22856 10.8557 8.22856 11.9737V16.5126C8.22856 17.3876 8.81065 18.1837 9.64411 18.4486L9.67132 18.4572V25.3983L7.86896 26.1225L7.85188 26.0938C7.5751 25.6272 7.08331 25.3486 6.53623 25.3486H2.10654C1.69953 25.342 1.31739 25.5004 1.02868 25.7865C0.738096 26.0746 0.577987 26.4591 0.577987 26.8694V37.4055C0.577987 38.2484 1.26365 38.9342 2.10654 38.9342H6.54403C7.09033 38.9342 7.60037 38.6368 7.87496 38.1583L7.89095 38.1303ZM25.3702 38.2556H12.4711C12.0543 38.2556 11.7101 38.199 11.3199 38.0663L8.07258 36.9655V27.2954L11.895 25.757C12.5301 25.503 13.1552 25.5378 13.753 25.8602L17.4572 27.8332C17.973 28.1068 18.4827 28.2342 19.061 28.2342H24.8867C25.4852 28.2342 25.9805 28.6064 26.1486 29.1825C26.317 29.76 26.0992 30.3405 25.5939 30.6613L24.3697 31.4489C24.0319 31.6689 23.6957 31.767 23.2801 31.767H17.7976C17.4751 31.767 17.2127 32.0294 17.2127 32.3519C17.2127 32.6745 17.4751 32.9369 17.7976 32.9369H26.384C27.1666 32.9369 27.8695 32.7549 28.596 32.3643L37.307 27.6228C38.2452 27.108 38.8878 28.1487 38.958 28.2691C39.2662 28.77 39.4978 29.7298 38.8049 30.1699L26.8574 37.8126C26.3738 38.119 25.9152 38.2556 25.3702 38.2556ZM8.15057 36.9096L11.3449 37.9925C11.7316 38.124 12.0579 38.1776 12.471 38.1776H25.3701C25.8994 38.1776 26.3452 38.0448 26.8154 37.7469L38.763 30.1042C39.4086 29.6941 39.1842 28.7856 38.8911 28.3092C38.7824 28.123 38.1996 27.2221 37.3443 27.6913L28.633 32.433C27.8946 32.83 27.18 33.0148 26.384 33.0148H17.7976C17.4321 33.0148 17.1347 32.7175 17.1347 32.3519C17.1347 31.9864 17.4321 31.6891 17.7976 31.6891H23.2801C23.6797 31.6891 24.0027 31.5948 24.3274 31.3834L25.5519 30.5956C26.0274 30.2937 26.2322 29.7476 26.0736 29.2043C25.9156 28.6624 25.4497 28.3122 24.8867 28.3122H19.061C18.4695 28.3122 17.9481 28.1819 17.4206 27.9021L13.7162 25.929C13.1395 25.6179 12.5367 25.5844 11.9241 25.8294L8.15057 27.348V36.9096ZM6.54403 37.7643H2.10654C1.91204 37.7643 1.7478 37.6 1.7478 37.4055V26.8693C1.7478 26.6748 1.91204 26.5105 2.10654 26.5105H6.54403C6.73853 26.5105 6.90277 26.6748 6.90277 26.8693V37.3977C6.90277 37.5964 6.73853 37.7643 6.54403 37.7643ZM2.10654 26.5886C1.95696 26.5886 1.82579 26.7198 1.82579 26.8694V37.4055C1.82579 37.5551 1.95696 37.6864 2.10654 37.6864H6.54403C6.69626 37.6864 6.82478 37.5543 6.82478 37.3978V26.8695C6.82478 26.7199 6.69361 26.5887 6.54403 26.5887H2.10654V26.5886ZM26.3918 31.767H26.0396L26.2383 31.6405C27.1726 31.0354 27.5893 29.9123 27.2747 28.8457C26.959 27.7755 25.9993 27.0565 24.8867 27.0565H22.8044V18.5403H34.5259V27.8128L34.5055 27.8239L28.0481 31.3334C27.4957 31.6333 26.9849 31.767 26.3918 31.767ZM26.3065 31.689H26.3918C26.9712 31.689 27.4705 31.5581 28.011 31.2648L34.4479 27.7665V18.6183H22.8824V26.9785H24.8867C26.0343 26.9785 27.0239 27.72 27.3494 28.8236C27.671 29.9137 27.252 31.061 26.3065 31.689ZM21.6346 27.0644H19.061C18.6697 27.0644 18.3442 26.9836 18.0054 26.8024L14.301 24.8294C13.3926 24.3444 12.4088 24.2911 11.4561 24.6751L10.8411 24.9229V18.5404H21.6346V27.0644ZM12.7239 24.3434C13.2733 24.3434 13.8175 24.4828 14.3378 24.7605L18.0422 26.7337C18.369 26.9085 18.6832 26.9864 19.0611 26.9864H21.5567V18.6184H10.9191V24.8074L11.4271 24.6028C11.8562 24.4297 12.2917 24.3434 12.7239 24.3434ZM35.1108 17.3705H22.8044V11.1762L22.852 11.1871C24.0609 11.4618 24.8348 12.5073 25.7308 13.7179L25.7843 13.79C26.3546 14.5582 26.9442 15.3525 27.687 15.9361C27.7902 16.0186 27.9132 16.0604 28.0529 16.0604C28.2369 16.0604 28.4006 15.9825 28.5137 15.841C28.6091 15.7186 28.653 15.5638 28.6361 15.4096C28.628 15.3338 28.6046 15.2604 28.5672 15.1939C28.5299 15.1274 28.4795 15.0692 28.419 15.0228C27.8054 14.5304 27.2967 13.8631 26.6956 13.0419L26.6697 13.0069C26.2027 12.3765 25.7198 11.7245 25.1407 11.1835L25.0685 11.116H35.1186C35.5873 11.116 35.9686 11.5009 35.9686 11.9739V16.5128C35.9687 16.9857 35.5838 17.3705 35.1108 17.3705ZM22.8824 17.2925H35.1108C35.5409 17.2925 35.8907 16.9426 35.8907 16.5126V11.9737C35.8907 11.5437 35.5444 11.1939 35.1187 11.1939H25.2652C25.8181 11.7257 26.2827 12.353 26.7325 12.9604L26.7585 12.9955C27.3563 13.8122 27.8617 14.4754 28.4672 14.9614C28.5359 15.0142 28.5932 15.0803 28.6355 15.1559C28.6779 15.2314 28.7044 15.3148 28.7136 15.4009C28.7329 15.5749 28.6837 15.7483 28.5751 15.8892C28.4465 16.05 28.2612 16.1383 28.053 16.1383C27.8951 16.1383 27.7557 16.0908 27.6386 15.9971C26.8878 15.4072 26.295 14.6086 25.7217 13.8363L25.6681 13.7641C24.7932 12.5822 24.0361 11.5593 22.8823 11.2744V17.2925H22.8824ZM21.6424 17.3705H10.2562C9.78324 17.3705 9.39837 16.9856 9.39837 16.5126V11.9737C9.39837 11.5008 9.78324 11.1159 10.2562 11.1159H19.3782L19.306 11.1833C18.7388 11.7132 18.2646 12.351 17.8062 12.9677L17.6909 13.123C17.1511 13.8507 16.6413 14.538 16.0281 15.0224C15.907 15.1158 15.8301 15.2518 15.8114 15.4057C15.8021 15.4827 15.808 15.5608 15.8289 15.6355C15.8497 15.7102 15.8852 15.7801 15.9331 15.8411C16.0462 15.9825 16.2098 16.0603 16.3938 16.0603C16.5186 16.0603 16.6524 16.0147 16.7607 15.9352C17.5155 15.3345 18.1137 14.5288 18.6922 13.7498L18.7162 13.7175C19.6122 12.5071 20.386 11.4618 21.5948 11.187L21.6424 11.1762V17.3705ZM10.2562 11.1939C9.82621 11.1939 9.47636 11.5438 9.47636 11.9738V16.5127C9.47636 16.9427 9.82621 17.2926 10.2562 17.2926H21.5644V11.2745C20.4107 11.5595 19.6537 12.5823 18.7789 13.764L18.7549 13.7964C18.1734 14.5795 17.5721 15.3893 16.8081 15.9974C16.6836 16.0887 16.537 16.1384 16.3938 16.1384C16.1857 16.1384 16.0003 16.0501 15.8721 15.8898C15.8178 15.8207 15.7776 15.7415 15.7539 15.6569C15.7302 15.5722 15.7234 15.4837 15.734 15.3965C15.7553 15.2217 15.8427 15.067 15.9801 14.9611C16.5848 14.4833 17.0916 13.8001 17.6282 13.0766L17.7436 12.9213C18.1849 12.3277 18.6407 11.7146 19.1816 11.1939H10.2562ZM21.4109 9.91051L21.3516 9.90708C19.2066 9.78183 17.3232 9.44937 15.9051 8.94565C14.1763 8.33274 13.1113 7.20887 13.0561 5.93931C13.0163 5.04869 13.4936 4.24729 14.2723 3.89775C14.5586 3.76611 14.879 3.69935 15.2241 3.69935C16.2118 3.69935 17.3598 4.28208 18.4565 5.34021C19.7129 6.5427 20.7824 8.18823 21.3906 9.85483L21.4109 9.91051ZM15.224 3.77734C14.8902 3.77734 14.5809 3.84176 14.3044 3.96872C13.5549 4.30524 13.0956 5.07731 13.1339 5.9358C13.1876 7.17252 14.2334 8.2702 15.9311 8.87211C17.3294 9.36873 19.1836 9.69823 21.2967 9.82566C20.6891 8.18901 19.6366 6.57756 18.4023 5.39644C17.3202 4.35226 16.1915 3.77734 15.224 3.77734ZM23.0284 9.91051L23.0484 9.8549C23.6415 8.20828 24.7082 6.55993 25.9748 5.33241L25.975 5.33218C27.0982 4.26398 28.2186 3.69928 29.215 3.69928C29.5524 3.69928 29.8726 3.76603 30.1667 3.8976C30.9453 4.24714 31.4227 5.04854 31.383 5.93923C31.3274 7.21667 30.2623 8.34062 28.5338 8.94557C27.1065 9.44976 25.2232 9.7823 23.0874 9.907L23.0284 9.91051ZM26.0289 5.38856C24.785 6.59417 23.7351 8.20859 23.142 9.82574C25.2461 9.69877 27.1005 9.36928 28.5079 8.87211C30.2053 8.278 31.251 7.18032 31.305 5.9358C31.3434 5.07731 30.8841 4.30524 30.1348 3.9688C29.8508 3.84176 29.5414 3.77726 29.215 3.77726C28.239 3.77734 27.1372 4.33456 26.0289 5.38856Z" fill="#E7ECFB"/>
</g>
<defs>
<clipPath id="clip0_23_412">
<rect width="40" height="40" fill="white" transform="translate(0.5 0.970703)"/>
</clipPath>
</defs>
</svg>
