<svg width="40" height="40" viewBox="0 0 40 40" fill="none" xmlns="http://www.w3.org/2000/svg">
<path d="M38.7753 26.3C38.6479 26.2097 38.492 26.1686 38.3367 26.1844C38.1813 26.2003 38.0369 26.2719 37.9304 26.3861C35.338 29.1638 32.0054 31.3589 28.2927 32.7343C22.2763 34.963 15.2679 34.7694 9.85366 32.2522L10.3766 30.5752C10.4067 30.4786 10.4137 30.3763 10.397 30.2765C10.3802 30.1768 10.3403 30.0823 10.2803 30.0008C10.2204 29.9194 10.1422 29.8531 10.0519 29.8074C9.96164 29.7618 9.86191 29.7379 9.76076 29.7379H9.76052C6.47304 29.7381 3.62323 29.2233 1.94526 28.3226C1.84885 28.2709 1.74086 28.2445 1.63145 28.246C1.52204 28.2474 1.4148 28.2767 1.31983 28.3311C1.22485 28.3854 1.14525 28.463 1.08852 28.5565C1.03178 28.6501 0.999777 28.7566 0.995509 28.8659C0.842366 32.7984 4.21814 37.4422 6.66409 39.4836C6.74556 39.5517 6.84256 39.5985 6.94649 39.6201C7.05042 39.6417 7.15806 39.6373 7.25987 39.6073C7.36169 39.5773 7.45453 39.5226 7.53016 39.4481C7.60578 39.3736 7.66187 39.2817 7.69344 39.1803L8.06682 37.9828C10.7349 39.1504 13.5553 39.8177 16.4621 39.9678C16.8775 39.9894 17.2921 40 17.7061 40C20.5446 40 23.3424 39.4958 26.0396 38.4967C31.6188 36.43 36.2121 32.3918 38.9735 27.1257C39.046 26.9874 39.0658 26.8275 39.0294 26.6756C38.9929 26.5238 38.9026 26.3904 38.7753 26.3ZM25.5912 37.2869C19.797 39.4333 13.53 39.157 7.94497 36.5095C7.86152 36.4699 7.77053 36.4487 7.67817 36.4473C7.58581 36.4459 7.49423 36.4644 7.40965 36.5016C7.32506 36.5386 7.24942 36.5934 7.18783 36.6622C7.12624 36.731 7.08014 36.8123 7.05264 36.9004L6.76328 37.8285C4.8941 35.9821 2.69001 32.7789 2.33106 29.9144C4.43717 30.7327 7.04804 30.966 8.88738 31.0164L8.45609 32.3992C8.41051 32.5453 8.41841 32.703 8.47836 32.8438C8.53831 32.9847 8.64642 33.0997 8.78335 33.1682C11.6846 34.6202 15.0813 35.4505 18.6061 35.5694C22.0519 35.6855 25.5567 35.1237 28.741 33.9442C31.0424 33.0917 33.2057 31.9382 35.1534 30.535C32.6302 33.5607 29.3467 35.8958 25.5912 37.2869ZM6.89707 23.7894L19.6915 31.3187C19.7924 31.3781 19.9056 31.4078 20.0187 31.4078C20.1319 31.4078 20.245 31.3781 20.346 31.3187L33.1405 23.7894C33.2373 23.7324 33.3175 23.6511 33.3733 23.5536C33.429 23.4561 33.4584 23.3457 33.4584 23.2334V8.17463C33.4584 7.94608 33.3374 7.73455 33.1405 7.61859L20.3459 0.0892151C20.2468 0.0308044 20.1338 0 20.0187 0C19.9036 0 19.7906 0.0308044 19.6915 0.0892151L6.89707 7.61867C6.80027 7.67567 6.72003 7.75695 6.66428 7.85447C6.60852 7.95199 6.57919 8.06238 6.57917 8.17471V23.2334C6.57915 23.3458 6.60847 23.4562 6.66423 23.5537C6.71999 23.6512 6.80025 23.7325 6.89707 23.7894ZM7.8694 9.30285L19.3735 16.0729V29.6344L7.8694 22.8645V9.30285ZM24.5608 12.2825L13.0382 5.50167L15.4767 4.06668L26.9992 10.8475L24.5608 12.2825ZM27.626 11.9758V16.4086L25.2059 17.8327L25.2059 13.4001L27.626 11.9758ZM23.2887 13.031L20.0187 14.9555L8.49625 8.17463L11.7662 6.25029L23.2887 13.031ZM20.6639 29.6345V16.0729L23.9156 14.1593L23.9156 18.9609C23.9156 19.0746 23.9457 19.1863 24.0027 19.2846C24.0598 19.383 24.1418 19.4645 24.2406 19.5209C24.3392 19.5774 24.4511 19.6069 24.5648 19.6062C24.6786 19.6055 24.7901 19.5747 24.888 19.517L28.5984 17.3335C28.6952 17.2765 28.7755 17.1952 28.8312 17.0977C28.887 17.0002 28.9163 16.8898 28.9163 16.7775V11.2165L32.1681 9.30293V22.8646L20.6639 29.6345ZM20.0187 1.3938L31.5412 8.17463L28.2712 10.099L16.7487 3.31814L20.0187 1.3938Z" fill="#E7ECFB"/>
</svg>
