<svg width="41" height="40" viewBox="0 0 41 40" fill="none" xmlns="http://www.w3.org/2000/svg">
<path d="M9.0936 9.84457C8.66235 9.84457 8.31235 10.1946 8.31235 10.6258C8.31235 11.0571 8.66235 11.4071 9.0936 11.4071C9.52485 11.4071 9.87485 11.0571 9.87485 10.6258C9.87485 10.1946 9.52485 9.84457 9.0936 9.84457Z" fill="#E7ECFB"/>
<path d="M37.2912 16.5261L36.1608 14.2653C35.7612 13.4659 34.9579 12.9694 34.0645 12.9694H27.5304V7.5009C27.5304 6.20863 26.479 5.15723 25.1867 5.15723H2.84391C1.55157 5.15723 0.500244 6.20855 0.500244 7.5009V27.8125C0.500244 29.1048 1.55157 30.1562 2.84391 30.1562H5.18758C5.18758 31.3557 5.6411 32.4511 6.38493 33.281H1.28149C0.850009 33.281 0.500244 33.6309 0.500244 34.0623C0.500244 34.4937 0.850009 34.8435 1.28149 34.8435H39.7174C40.1489 34.8435 40.4986 34.4937 40.4986 34.0623C40.4986 33.6309 40.1489 33.281 39.7174 33.281H37.7388C38.4827 32.451 38.9361 31.3557 38.9361 30.1562C38.9361 30.1117 38.934 30.0674 38.9328 30.0229C39.8438 29.7013 40.4986 28.8322 40.4986 27.8125V23.4939C40.4986 22.5823 40.6791 23.4334 37.2912 16.5261ZM36.1097 17.6567L38.4533 22.344H30.6552V17.6567H36.1097ZM2.06266 23.9064H3.62509V25.4689H2.06266V23.9064ZM9.87485 33.281C8.1518 33.281 6.75 31.8792 6.75 30.1562C6.75 29.9434 6.7711 29.7339 6.81329 29.5303C7.10711 28.0823 8.39469 27.0313 9.87485 27.0313C11.355 27.0313 12.6427 28.0822 12.9364 29.5303L12.9371 29.5335C12.9787 29.7338 12.9997 29.9434 12.9997 30.1562C12.9997 31.8792 11.5979 33.281 9.87485 33.281ZM9.87485 25.4689C7.87321 25.4689 6.10672 26.7511 5.45547 28.5937H2.84391C2.41313 28.5937 2.06266 28.2432 2.06266 27.8124V27.0312H4.40633C4.83782 27.0312 5.18758 26.6813 5.18758 26.2499V23.1251C5.18758 22.6937 4.83782 22.3439 4.40633 22.3439H2.06266V7.5009C2.06266 7.07012 2.41313 6.71965 2.84391 6.71965H25.1867C25.6175 6.71965 25.968 7.07012 25.968 7.5009V28.5938H14.2938C13.6414 26.7502 11.8756 25.4689 9.87485 25.4689ZM13.3648 33.281C14.1087 32.451 14.5621 31.3557 14.5621 30.1562H29.5615C29.5615 31.3557 30.015 32.4511 30.7588 33.281H13.3648ZM34.2488 33.281C32.5258 33.281 31.124 31.8792 31.124 30.1562C31.124 29.9434 31.1451 29.7339 31.1872 29.5303C31.4811 28.0823 32.7687 27.0313 34.2488 27.0313C35.729 27.0313 37.0166 28.0822 37.3104 29.5303L37.3111 29.5335C37.3526 29.7338 37.3737 29.9434 37.3737 30.1562C37.3737 31.8792 35.9719 33.281 34.2488 33.281ZM38.9361 27.8125C38.9361 28.0724 38.8081 28.3023 38.6124 28.4445C37.9194 26.6813 36.1951 25.4689 34.2488 25.4689C32.2472 25.4689 30.4807 26.7512 29.8294 28.5938H27.5303V14.5318H34.0644C34.2097 14.5314 34.3521 14.5716 34.4756 14.648C34.5991 14.7244 34.6988 14.8338 34.7633 14.9639L35.3284 16.0942H29.874C29.4426 16.0942 29.0928 16.4441 29.0928 16.8755V23.1253C29.0928 23.5567 29.4426 23.9065 29.874 23.9065H38.9361V27.8125Z" fill="#E7ECFB"/>
<path d="M22.0619 9.84457H12.2185C11.787 9.84457 11.4373 10.1944 11.4373 10.6258C11.4373 11.0572 11.787 11.4071 12.2185 11.4071H22.0619C22.4934 11.4071 22.8431 11.0572 22.8431 10.6258C22.8431 10.1944 22.4933 9.84457 22.0619 9.84457ZM22.0619 12.9694H15.3434C14.9119 12.9694 14.5621 13.3193 14.5621 13.7507C14.5621 14.1821 14.9119 14.5319 15.3434 14.5319H22.0619C22.4934 14.5319 22.8431 14.1821 22.8431 13.7507C22.8431 13.3193 22.4933 12.9694 22.0619 12.9694ZM34.2488 28.5938C33.3872 28.5938 32.6864 29.2947 32.6864 30.1562C32.6864 31.0178 33.3873 31.7186 34.2488 31.7186C35.1104 31.7186 35.8112 31.0177 35.8112 30.1562C35.8112 29.2946 35.1104 28.5938 34.2488 28.5938ZM9.87485 28.5938C9.01328 28.5938 8.31243 29.2947 8.31243 30.1562C8.31243 31.0178 9.01336 31.7186 9.87485 31.7186C10.7364 31.7186 11.4373 31.0177 11.4373 30.1562C11.4373 29.2946 10.7364 28.5938 9.87485 28.5938Z" fill="#E7ECFB"/>
</svg>
