<svg width="40" height="40" viewBox="0 0 40 40" fill="none" xmlns="http://www.w3.org/2000/svg">
<path d="M31.1817 17.0298V6.49984C31.1817 6.27882 31.0939 6.06686 30.9376 5.91058C30.7813 5.7543 30.5693 5.6665 30.3483 5.6665C28.0508 5.6665 26.1817 3.79734 26.1817 1.49984C26.1817 1.27882 26.0939 1.06686 25.9376 0.910582C25.7813 0.754301 25.5693 0.666504 25.3483 0.666504H5.8325C5.61149 0.666504 5.39952 0.754301 5.24324 0.910582C5.08696 1.06686 4.99917 1.27882 4.99917 1.49984C4.99806 2.60442 4.55884 3.66346 3.77785 4.4446C2.99687 5.22574 1.93792 5.66518 0.833333 5.6665C0.61232 5.6665 0.400358 5.7543 0.244078 5.91058C0.0877975 6.06686 0 6.27882 0 6.49984V21.9332C0 30.5307 14.6275 37.1815 15.25 37.4607C15.3571 37.5086 15.4731 37.5334 15.5904 37.5334C15.7077 37.5334 15.8237 37.5086 15.9308 37.4607C15.9992 37.4307 17.4925 36.7582 19.5333 35.5857C21.6542 38.1548 24.8625 39.7957 28.4467 39.7957C34.8175 39.7957 40 34.6123 40 28.2423C40 22.8157 36.2333 18.2632 31.1817 17.0298ZM15.5917 35.7807C13.4267 34.7457 1.66667 28.804 1.66667 21.9332V7.27317C2.91218 7.09133 4.06574 6.51234 4.95578 5.62229C5.84583 4.73224 6.42483 3.57868 6.60667 2.33317H24.5742C24.7562 3.57875 25.3353 4.73233 26.2255 5.62237C27.1157 6.5124 28.2694 7.09137 29.515 7.27317V16.7423C29.1625 16.7098 28.8067 16.6882 28.4467 16.6882C22.0758 16.6882 16.8933 21.8715 16.8933 28.2415C16.8933 30.4282 17.515 32.4682 18.575 34.214C17.5998 34.7721 16.6047 35.2947 15.5917 35.7807ZM28.4467 38.129C22.995 38.129 18.56 33.694 18.56 28.2423C18.56 22.7907 22.995 18.3557 28.4467 18.3557C33.8983 18.3557 38.3333 22.7907 38.3333 28.2423C38.3333 33.694 33.8983 38.129 28.4467 38.129Z" fill="#E7ECFB"/>
<path d="M28.4467 24.049C29.3725 24.049 30.1258 24.8023 30.1258 25.729C30.1258 25.95 30.2136 26.162 30.3699 26.3183C30.5262 26.4745 30.7382 26.5623 30.9592 26.5623C31.1802 26.5623 31.3921 26.4745 31.5484 26.3183C31.7047 26.162 31.7925 25.95 31.7925 25.729C31.7925 24.1732 30.7208 22.8732 29.28 22.4998V21.9215C29.28 21.7005 29.1922 21.4885 29.0359 21.3322C28.8796 21.176 28.6677 21.0882 28.4467 21.0882C28.2257 21.0882 28.0137 21.176 27.8574 21.3322C27.7011 21.4885 27.6133 21.7005 27.6133 21.9215V22.4998C26.1717 22.8732 25.1 24.1732 25.1 25.729C25.1009 26.6163 25.4538 27.467 26.0812 28.0945C26.7086 28.7219 27.5593 29.0748 28.4467 29.0757C29.3725 29.0757 30.1258 29.829 30.1258 30.7557C30.1258 31.6823 29.3725 32.4357 28.4467 32.4357C28.0012 32.4352 27.5742 32.2581 27.2592 31.9431C26.9442 31.6282 26.7671 31.2011 26.7667 30.7557C26.7667 30.5347 26.6789 30.3227 26.5226 30.1664C26.3663 30.0101 26.1543 29.9223 25.9333 29.9223C25.7123 29.9223 25.5004 30.0101 25.3441 30.1664C25.1878 30.3227 25.1 30.5347 25.1 30.7557C25.1 32.3115 26.1717 33.6115 27.6133 33.9848V34.5632C27.6133 34.7842 27.7011 34.9961 27.8574 35.1524C28.0137 35.3087 28.2257 35.3965 28.4467 35.3965C28.6677 35.3965 28.8796 35.3087 29.0359 35.1524C29.1922 34.9961 29.28 34.7842 29.28 34.5632V33.9848C30.7208 33.6115 31.7925 32.3115 31.7925 30.7557C31.7916 29.8685 31.4389 29.0179 30.8116 28.3905C30.1844 27.7631 29.3338 27.4101 28.4467 27.409C28.0012 27.4086 27.5742 27.2314 27.2592 26.9165C26.9442 26.6015 26.7671 26.1744 26.7667 25.729C26.7667 24.8023 27.52 24.049 28.4467 24.049ZM19.7192 14.2398C19.5629 14.0836 19.351 13.9958 19.13 13.9958C18.909 13.9958 18.6971 14.0836 18.5408 14.2398L13.0092 19.7715L10.5492 17.3115C10.4723 17.2319 10.3803 17.1684 10.2787 17.1248C10.177 17.0811 10.0676 17.0581 9.957 17.0571C9.84635 17.0562 9.73662 17.0773 9.6342 17.1192C9.53179 17.1611 9.43875 17.2229 9.3605 17.3012C9.28226 17.3794 9.22038 17.4725 9.17848 17.5749C9.13658 17.6773 9.11549 17.787 9.11646 17.8977C9.11742 18.0083 9.14041 18.1177 9.18408 18.2193C9.22776 18.321 9.29124 18.413 9.37083 18.4898L12.42 21.539C12.5763 21.6952 12.7882 21.783 13.0092 21.783C13.2301 21.783 13.4421 21.6952 13.5983 21.539L19.7192 15.4182C19.8754 15.2619 19.9632 15.05 19.9632 14.829C19.9632 14.608 19.8754 14.3961 19.7192 14.2398Z" fill="#E7ECFB"/>
</svg>
