<svg width="21" height="20" viewBox="0 0 21 20" fill="none" xmlns="http://www.w3.org/2000/svg">
<path d="M6.02215 4.55149C5.73371 4.26282 5.26574 4.26282 4.9773 4.55149C3.90637 5.62243 3.38 7.1143 3.53297 8.64485C3.57113 9.02614 3.89234 9.31036 4.26746 9.31036C4.29211 9.31036 4.31695 9.30911 4.3416 9.30665C4.74777 9.26602 5.04406 8.90368 5.00344 8.49778C4.89457 7.41008 5.26601 6.35246 6.02215 5.59629C6.31082 5.30789 6.31082 4.83989 6.02215 4.55149Z" fill="white"/>
<path d="M8.94828 0C4.28988 0 0.499996 3.78988 0.499996 8.44829C0.499996 13.1067 4.28988 16.8966 8.94828 16.8966C13.6067 16.8966 17.3966 13.1067 17.3966 8.44829C17.3966 3.78988 13.6066 0 8.94828 0ZM8.94828 15.4187C5.10469 15.4187 1.97785 12.2919 1.97785 8.44829C1.97785 4.60469 5.10469 1.47785 8.94828 1.47785C12.7916 1.47785 15.9187 4.60469 15.9187 8.44829C15.9187 12.2919 12.7919 15.4187 8.94828 15.4187Z" fill="white"/>
<path d="M20.2835 18.7387L14.914 13.3692C14.6254 13.0806 14.1579 13.0806 13.8692 13.3692C13.5805 13.6577 13.5805 14.1256 13.8692 14.4141L19.2387 19.7835C19.3072 19.8523 19.3886 19.9068 19.4783 19.9439C19.5679 19.9811 19.664 20.0001 19.7611 20C19.9503 20 20.1392 19.9279 20.2835 19.7835C20.5722 19.4951 20.5722 19.0271 20.2835 18.7387Z" fill="white"/>
</svg>
