<svg width="24" height="24" viewBox="0 0 24 24" fill="none" xmlns="http://www.w3.org/2000/svg">
<path d="M12 22.6761C11.6583 22.6761 11.3289 22.5523 11.0722 22.3275C10.1026 21.4797 9.16791 20.683 8.34319 19.9803L8.33897 19.9766C5.92107 17.9161 3.83312 16.1367 2.38038 14.3838C0.756443 12.4243 2.28882e-05 10.5663 2.28882e-05 8.53654C2.28882e-05 6.56451 0.67624 4.74516 1.90394 3.41344C3.14631 2.06598 4.85101 1.32385 6.70459 1.32385C8.08998 1.32385 9.35869 1.76185 10.4755 2.62557C11.0391 3.06151 11.5499 3.59508 12 4.21744C12.4502 3.59508 12.9609 3.06151 13.5247 2.62557C14.6415 1.76185 15.9102 1.32385 17.2956 1.32385C19.149 1.32385 20.8539 2.06598 22.0962 3.41344C23.3239 4.74516 24 6.56451 24 8.53654C24 10.5662 23.2437 12.4243 21.6198 14.3836C20.167 16.1367 18.0793 17.9159 15.6617 19.9762C14.8356 20.6801 13.8994 21.478 12.9276 22.3278C12.6708 22.5525 12.3412 22.6762 12 22.6761ZM6.70459 2.72972C5.24837 2.72972 3.91061 3.31093 2.93739 4.36632C1.94974 5.43769 1.40571 6.91865 1.40571 8.53654C1.40571 10.2436 2.04016 11.7703 3.46272 13.4868C4.83765 15.1459 6.88276 16.8887 9.25069 18.9067L9.25505 18.9104C10.0829 19.6158 11.0213 20.4157 11.998 21.2697C12.9805 20.414 13.9204 19.6129 14.7499 18.9063C17.1176 16.8883 19.1625 15.1459 20.5375 13.4868C21.9598 11.7703 22.5943 10.2436 22.5943 8.53654C22.5943 6.91861 22.0503 5.43764 21.0626 4.36632C20.0896 3.31093 18.7517 2.72972 17.2956 2.72972C16.2288 2.72972 15.2494 3.06886 14.3846 3.73754C13.6139 4.33374 13.077 5.08739 12.7622 5.61473C12.6004 5.88591 12.3155 6.04777 12 6.04777C11.6845 6.04777 11.3996 5.88591 11.2377 5.61473C10.9232 5.08739 10.3863 4.33374 9.61538 3.73754C8.75063 3.06886 7.77118 2.72972 6.70459 2.72972Z" fill="#DE2976"/>
</svg>
